<?xml version="1.0" encoding="UTF-8"?>
<svg id="Layer_1" data-name="Layer 1" xmlns="http://www.w3.org/2000/svg" viewBox="0 0 247.47 113.67">
  <defs>
    <style>
      .cls-1 {
        fill: #252d64;
      }

      .cls-1, .cls-2 {
        stroke-width: 0px;
      }

      .cls-2 {
        fill: #fff;
      }
    </style>
  </defs>
  <path class="cls-1" d="M58.15,38.12c-7.61,0-13.78,6.17-13.78,13.78s6.17,13.78,13.78,13.78,13.78-6.17,13.78-13.78-6.17-13.78-13.78-13.78ZM58.15,60.28c-4.63,0-8.38-3.75-8.38-8.38s3.75-8.38,8.38-8.38,8.38,3.75,8.38,8.38-3.75,8.38-8.38,8.38Z"/>
  <path class="cls-1" d="M160.06,38.12c-7.61,0-13.78,6.17-13.78,13.78s6.17,13.78,13.78,13.78,13.78-6.17,13.78-13.78-6.17-13.78-13.78-13.78ZM160.06,60.28c-4.63,0-8.38-3.75-8.38-8.38s3.75-8.38,8.38-8.38,8.38,3.75,8.38,8.38-3.75,8.38-8.38,8.38Z"/>
  <path class="cls-1" d="M204.45,46.21c0-5.03-4.05-5.01-4.05-5.01,0,0-.28-15.92-1.4-19.27-1.12-3.35-15.08-19.55-18.71-20.77-3.63-1.21-71.46-1.86-76.77,0-5.31,1.86-31.75,20.77-31.75,20.77,0,0-14.77.84-27.9,1.96-13.13,1.12-14.49,16.97-14.49,16.97,0,0-2.79.09-3.63,3.72-.84,3.63-.04,16.17,4.99,16.17h10.53c-1.27-2.52-2-5.36-2-8.38,0-10.34,8.38-18.71,18.71-18.71s18.71,8.38,18.71,18.71c0,3.02-.73,5.86-2,8.38h68.47c-1.27-2.52-2-5.36-2-8.38,0-10.34,8.38-18.71,18.71-18.71s18.71,8.38,18.71,18.71c0,3.02-.73,5.86-2,8.38h18.97c10.49,0,8.86-9.51,8.86-14.54ZM148.15,24.99L113.64,5.18c3.89,0,45.8.37,45.8.37l5.18,20.05-16.48-.61ZM169.63,25.49l-6.65-19.64,14.63.31c.77.02,1.5.35,2.01.93l12.49,13.99c.48.54.77,1.21.84,1.93l.26,2.86-23.59-.37Z"/>
  <g>
    <path class="cls-1" d="M137.39,103.31v-24.98h14.73v1.76h-12.79v10.07h11.13v1.76h-11.13v11.39h-1.95Z"/>
    <path class="cls-1" d="M171.23,101.55v1.76h-14.92v-24.98h1.95v23.22h12.97Z"/>
    <path class="cls-1" d="M190.71,101.55v1.76h-15.28v-24.98h15.1v1.76h-13.15v9.33h11.5v1.76h-11.5v10.36h13.34Z"/>
    <path class="cls-1" d="M210.55,101.55v1.76h-15.28v-24.98h15.1v1.76h-13.15v9.33h11.5v1.76h-11.5v10.36h13.34Z"/>
    <path class="cls-1" d="M223.56,80.09v23.22h-1.98v-23.22h-7.2v-1.76h16.39v1.76h-7.2Z"/>
  </g>
  <g>
    <path class="cls-1" d="M9.92,103.64L0,78.57h7.77l6.17,18.05h.11l5.9-18.05h7.4l-9.49,25.61c-1.25,3.49-2.8,5.95-4.64,7.37-1.84,1.42-4.28,2.13-7.32,2.13-1.82,0-3.43-.15-4.82-.45l.64-5.29c.97.16,1.82.25,2.57.25,1.25,0,2.38-.41,3.38-1.24,1-.82,1.75-1.93,2.25-3.31h0Z"/>
    <path class="cls-1" d="M39.13,76.44v2.13h5.63v4.55h-5.63v20.17h-6.92v-20.17h-3.65v-4.15l3.65-.4v-2.52c0-2.54.6-4.4,1.8-5.59,1.2-1.19,3.4-1.78,6.62-1.78,1.25,0,2.81.15,4.66.44l-.64,4.99c-1.07-.16-2.07-.25-3-.25s-1.58.19-1.96.57c-.38.38-.56,1.05-.56,2h0Z"/>
    <path class="cls-1" d="M53.51,103.29h-6.97v-24.72h6.97v3.21h.11c2.5-2.47,5.42-3.71,8.74-3.71,2.65,0,4.65.73,6.01,2.2,1.36,1.47,2.04,3.5,2.04,6.11v16.91h-6.97v-15.43c0-2.97-1.43-4.45-4.29-4.45-1.72,0-3.59.64-5.63,1.93v17.95Z"/>
    <path class="cls-1" d="M85.53,83.02c-3.57,0-5.54,1.76-5.9,5.29h10.56c.54-3.53-1.02-5.29-4.66-5.29h0ZM96.95,92.26h-17.32c.25,4.15,2.72,6.23,7.4,6.23,3.18,0,5.95-.33,8.31-.99l.86,5.14c-3,.76-6.38,1.14-10.13,1.14-4.93,0-8.49-1.11-10.67-3.34-2.18-2.23-3.27-5.4-3.27-9.52,0-8.57,4.59-12.86,13.78-12.86,2.18,0,4.05.27,5.6.82,1.55.54,2.73,1.25,3.54,2.1.8.86,1.39,1.93,1.77,3.21.38,1.29.55,2.55.54,3.81-.02,1.25-.15,2.67-.4,4.25h0Z"/>
    <path class="cls-1" d="M116.51,96.96v-12.02c-1.47-1.02-3.08-1.53-4.83-1.53-3.47,0-5.2,2.51-5.2,7.52s1.73,7.57,5.2,7.57c1.75,0,3.36-.51,4.83-1.53h0ZM116.51,80.89v-12.21h6.97v34.61h-6.97v-2.47h-.11c-.89.89-2.01,1.61-3.35,2.15-1.34.54-2.73.82-4.16.82-6.54,0-9.81-4.29-9.81-12.86,0-3.82.81-6.92,2.44-9.3,1.63-2.37,4.21-3.56,7.75-3.56,2.9,0,5.27.94,7.13,2.82h.11Z"/>
  </g>
  <path class="cls-1" d="M227.78,51.95h-15.42c-.55,0-.99-.44-.99-.99s.44-.99.99-.99h15.42c.55,0,.99.44.99.99s-.44.99-.99.99Z"/>
  <path class="cls-1" d="M233.95,37.11h-4.84c-.55,0-.99-.44-.99-.99s.44-.99.99-.99h4.84c.55,0,.99.44.99.99s-.44.99-.99.99Z"/>
  <path class="cls-1" d="M240.3,51.48h-2.35c-.55,0-.99-.44-.99-.99s.44-.99.99-.99h2.35c.55,0,.99.44.99.99s-.44.99-.99.99Z"/>
  <path class="cls-1" d="M229.9,46.85h-10c-.55,0-.99-.44-.99-.99s.44-.99.99-.99h10c.55,0,.99.44.99.99s-.44.99-.99.99Z"/>
  <path class="cls-1" d="M217.94,34.04h-10.79c-.55,0-.99-.44-.99-.99s.44-.99.99-.99h10.79c.55,0,.99.44.99.99s-.44.99-.99.99Z"/>
  <path class="cls-1" d="M246.48,46.85h-13.17c-.55,0-.99-.44-.99-.99s.44-.99.99-.99h13.17c.55,0,.99.44.99.99s-.44.99-.99.99Z"/>
  <path class="cls-1" d="M225.26,42.21h-11.47c-.55,0-.99-.44-.99-.99s.44-.99.99-.99h11.47c.55,0,.99.44.99.99s-.44.99-.99.99Z"/>
  <path class="cls-1" d="M230.1,56.58h-12.06c-.55,0-.99-.44-.99-.99s.44-.99.99-.99h12.06c.55,0,.99.44.99.99s-.44.99-.99.99Z"/>
  <g>
    <path class="cls-2" d="M132.71,32.96c-.02-2.37.25-6.83.26-6.88h.26c0,.06-.27,4.52-.25,6.87h-.26Z"/>
    <path class="cls-2" d="M106.7,6.33c-.57,0-1.07.31-1.76.78-1.2.82-23.91,15.46-25.12,16.1-.78.41-1.55.88-1.59,1.63-.04.75.72,1.26.97,1.43,1.17.78,11.14,7.88,13.18,9.34-.74,1.91-3.81,9.8-4.18,10.64-.73,1.66.59,2.47,1.75,3.18.19.12.39.24.59.37.09.06,9.54,5.69,16.63,5.71h.03c6.42,0,15.76-5.26,17.57-6.31.08-.05.17-.1.25-.14,1.01-.58,2.27-1.3,1.5-3.08-.53-1.22-3.32-9.61-3.95-11.53,1.87-1.43,11.22-8.59,12.11-9.26.58-.44.85-.92.82-1.44-.03-.55-.41-1.04-1.11-1.46-.24-.14-24.32-14.33-25.81-15.2-.81-.47-1.3-.76-1.86-.76M106.7,6.91c.4,0,.81.24,1.57.68,1.51.88,25.81,15.2,25.81,15.2.87.51,1.21,1.13.22,1.89-.07.05-.27.27-.43.39-2.15,1.64-11.99,9.18-11.99,9.18,0,0,3.48,10.55,4.1,11.96.61,1.41-.38,1.84-1.51,2.5-1.13.66-10.85,6.23-17.28,6.23h-.03c-6.6-.02-15.7-5.22-16.32-5.62-1.45-.93-2.73-1.43-2.12-2.83.43-.98,4.35-11.08,4.35-11.08,0,0-12.23-8.73-13.55-9.61-1.2-.84-.64-1.44.55-2.07,1.19-.63,23.8-15.2,25.18-16.14.68-.46,1.05-.68,1.44-.68"/>
    <g>
      <path class="cls-2" d="M132.71,43.15s2.47-.66,2.53-1.92c.06-1.26-.57-2.83-1.46-2.93,0,0-2.32-.31-3.3-.14-.98.17-1.26,1.06-1.58,2.35-.32,1.29-.49,2.3-.66,2.96-.17.66-.35,1.25.55,1.2.55-.02,1.21-.14,1.52-.4,0,0-.31.75-1.41,1.29-.76.38-2.01,1-2.98,3.47-.98,2.47-1.15,5.11,1.03,6.31,2.63,1.45,5.51-3.1,6.66-5.65,0,0-1.26.55-2.81.55,0,0,3.39-1.95,3.7-4.76,0,0-1.46,2.81-3.39,3.62,0,0,3.07-3.5,3.64-5.57,0,0-2.07,1.05-2.04-.37ZM132.63,47.02c-.83,1.12-1.6,1.99-1.6,2l-.28.32.39-.16c1.45-.61,2.62-2.29,3.14-3.15-.65,2.43-3.52,4.11-3.55,4.12l-.32.18h.37c1.18,0,2.19-.31,2.62-.46-.87,1.85-2.72,4.88-4.68,5.53-.62.21-1.2.16-1.74-.14-1.05-.58-2.58-2.16-.99-6.19.96-2.43,2.2-3.05,2.94-3.42,1.11-.56,1.44-1.31,1.45-1.34l.15-.37-.31.25c-.3.24-.95.36-1.46.38-.26.01-.43-.03-.51-.13-.14-.17-.04-.53.06-.91v-.04c.09-.31.17-.7.27-1.14.11-.53.24-1.12.4-1.81.31-1.27.58-2.12,1.5-2.28.95-.17,3.25.14,3.27.14h0c.83.09,1.43,1.62,1.38,2.83-.05,1.18-2.43,1.83-2.45,1.83l-.07.02v.07c0,.34.1.59.32.72.46.29,1.28,0,1.66-.17-.28.82-.95,1.96-1.96,3.32Z"/>
      <path class="cls-2" d="M127.99,55.75c-.39,0-.76-.1-1.12-.29-2.6-1.44-1.8-4.67-1.09-6.47.99-2.51,2.28-3.15,3.04-3.54.55-.28.9-.6,1.1-.85-.44.15-.96.19-1.15.2-.34.02-.57-.05-.7-.21-.21-.26-.1-.67.01-1.11v-.04c.09-.3.17-.69.26-1.13.11-.53.24-1.13.41-1.82.32-1.32.63-2.26,1.68-2.45.98-.17,3.24.12,3.34.14.97.11,1.63,1.71,1.57,3.06-.06,1.21-2.06,1.87-2.52,2.01.01.21.08.35.21.44.4.25,1.32-.11,1.64-.27l.25-.13-.08.27c-.45,1.63-2.38,4.07-3.25,5.12,1.58-1.02,2.75-3.23,2.76-3.26l.31-.59-.07.66c-.25,2.29-2.45,3.99-3.37,4.61,1.29-.09,2.29-.51,2.31-.52l.3-.13-.13.29c-1.03,2.3-2.94,5.21-4.91,5.87-.28.09-.54.14-.81.14ZM130.85,43.52l-.35.83c-.04.09-.39.84-1.51,1.4-.72.36-1.93.97-2.88,3.35-1.56,3.94-.08,5.47.93,6.04.51.28,1.06.33,1.64.13,1.71-.57,3.45-3.1,4.47-5.2-.54.17-1.4.38-2.38.38h-.84l.72-.42s1.95-1.14,2.98-2.87c-.63.82-1.48,1.71-2.47,2.12l-.89.37.64-.73s.78-.89,1.6-2h0c.89-1.2,1.52-2.24,1.84-3.02-.46.17-1.1.31-1.51.05-.26-.16-.38-.44-.38-.83v-.17s.17-.04.17-.04c.02,0,2.31-.64,2.36-1.72.05-1.15-.52-2.62-1.26-2.7-.25-.03-2.35-.3-3.24-.14-.84.15-1.09.93-1.4,2.19-.16.66-.28,1.23-.39,1.74l-.02.07c-.09.45-.17.84-.26,1.15v.04c-.09.32-.19.68-.09.8.02.03.12.1.41.08.47-.02,1.12-.13,1.39-.35l.7-.57Z"/>
    </g>
    <path class="cls-2" d="M132.86,32.47s-.82.71-1.14.97c-.32.26-.37.71-.37,1.42s.69,12.85-4.42,20.49c0,0,2.12-2.37,3.5-6.59.91-2.79,1.92-10.76,2.16-12.67.25-2.05.66-3.79.27-3.62"/>
    <path class="cls-2" d="M133.65,39.27c-.46-.24-1.03.01-1.18,1.24-.12.97.03,1.82.55,1.85.35.02,1.05-.49,1.29-1.31.24-.82-.16-1.52-.67-1.78ZM133.87,40.67c-.11.39-.45.63-.61.62-.25-.01-.32-.42-.26-.88.07-.58.34-.7.56-.59.24.12.43.45.32.84Z"/>
    <path class="cls-2" d="M128.63,44.08s1.28-.39,1.48-1.71c.15-1,.34-2.51.58-3.08,0,0-.05,2.32-.14,2.94-.13.92-.37,1.87-1.92,1.85"/>
    <path class="cls-2" d="M131.57,46.13c-.15.44-.15.85.09.91.16.04.54-.13.72-.49.19-.36.06-.72-.15-.89-.19-.15-.48-.09-.66.47"/>
    <path class="cls-2" d="M129.64,46.43c-.6.29-1.49.75-2.15,2.37-.66,1.62-1.28,2.87-.83,3.99.44,1.12,1,.96,1.26.43,0,0,1.62-3.21,1.94-5.05.32-1.84.39-2.02-.22-1.74ZM127.88,51.77c-.09.58-.36.69-.58.57-.23-.13-.41-.47-.28-.86.13-.39.47-.62.64-.6.25.02.3.43.23.89ZM128.49,50.04c.14.3.19.75.19.75-.53-1.15-1.29-.5-1.29-.5.73-.7,1.54-1.99,1.54-1.99,0,0-.23.56-.39.9-.16.34-.19.55-.04.85Z"/>
    <path class="cls-2" d="M128.19,55.1s.88-.47,2.81-2.34c.85-.82,1.56-1.61.57-1.61h-1.4s1.3.29.62,1.11c-.67.81-1.96,2.22-2.6,2.84"/>
    <path class="cls-2" d="M130.63,52.48c.17-.28.25-.55.09-.63-.1-.05-.38,0-.57.21-.19.21-.16.48-.05.63.11.14.31.14.53-.21"/>
    <path class="cls-2" d="M107.18,28.48c-2.18,0-3.94-1.7-3.94-3.8s1.77-3.8,3.94-3.8,3.94,1.7,3.94,3.8-1.77,3.8-3.94,3.8"/>
    <path class="cls-2" d="M107.17,46.77s.16,2.48.23,3.2c.06.72.27.93,1.41,1.4,1.15.47.94,2.26.94,2.26-.09-1.57-1.24-1.75-1.62-1.74-.52,0-.96,0-.96,0,0,0-.45,0-.97,0-.38,0-1.52.17-1.62,1.74,0,0-.2-1.79.94-2.26,1.15-.47,1.35-.68,1.41-1.4.06-.72.23-3.2.23-3.2"/>
    <g>
      <path class="cls-2" d="M98.12,45.43c-1.8-1.19-2.75-1.82-3.56-.61-.45.67.43,2.03,1.95,3.04,1.52,1.01,3.11,1.28,3.56.61.81-1.22,0-1.75-1.95-3.04Z"/>
      <path class="cls-2" d="M116.29,45.24c-1.94,1.29-2.75,1.82-1.95,3.04.45.67,2.04.4,3.56-.61,1.52-1.01,2.39-2.37,1.95-3.04-.81-1.22-1.76-.58-3.56.61Z"/>
      <path class="cls-2" d="M98.48,44.83c-2.22-1.47-3.4-2.25-4.58-.47-.65.99.34,2.79,2.22,4.04,1.88,1.24,3.93,1.45,4.58.47,1.18-1.78.18-2.45-2.22-4.03ZM100.41,48.67c-.55.83-2.38.58-4.09-.55-1.71-1.13-2.65-2.72-2.1-3.55.99-1.5,2.07-.79,4.09.55,2.18,1.45,3.09,2.05,2.1,3.55Z"/>
      <path class="cls-2" d="M115.93,44.64c-2.39,1.59-3.4,2.25-2.22,4.04.65.98,2.7.78,4.58-.47,1.88-1.24,2.87-3.05,2.22-4.04-1.18-1.78-2.36-1-4.58.47ZM118.09,47.94c-1.71,1.13-3.54,1.38-4.09.55-.99-1.5-.08-2.1,2.1-3.55,2.02-1.34,3.09-2.05,4.09-.55.55.83-.39,2.42-2.1,3.55Z"/>
      <polygon class="cls-2" points="103.71 22.88 103.71 22.88 103.71 22.88 103.71 22.88"/>
      <path class="cls-2" d="M134.23,22.54c-.24-.14-24.32-14.33-25.81-15.2-.8-.47-1.24-.72-1.72-.72s-.93.28-1.6.73c-1.2.82-23.93,15.48-25.15,16.12-.86.45-1.4.85-1.43,1.39-.02.4.25.78.84,1.17,1.21.81,11.84,8.38,13.37,9.47-.56,1.45-3.88,9.97-4.26,10.86-.63,1.43.47,2.1,1.63,2.81.19.12.39.24.59.37.09.06,9.58,5.65,16.47,5.66h.03c2.74,0,6.35-.97,10.74-2.89,3.3-1.44,5.95-2.95,6.68-3.38l.25-.14c1.01-.58,2.05-1.17,1.38-2.71-.55-1.28-3.55-10.3-4.02-11.74,1.4-1.07,11.35-8.69,12.27-9.39.49-.38.73-.78.71-1.2-.03-.45-.35-.86-.97-1.23ZM87.63,31.53s-6.41-4.54-8.03-5.67c-1.63-1.13-.4-1.58.15-1.94.55-.36,7.88-4.95,7.88-4.95,0,0-.19,1.47-1.27,2.2-1.08.73-3.3,2.16-4.52,3-1.07.74-1.04.87.24,1.74.99.68,2.87,2.12,4.29,3.16,1.41,1.04,1.27,2.46,1.27,2.46ZM89.4,26.86s-1.77.19-2.96-.97c-1.27-1.22-2.83-1.11-3.97-1.22,1.14-.12,2.7,0,3.97-1.22,1.19-1.15,2.96-.97,2.96-.97-1.56.19-1.82.82-1.82,1.32v1.74c0,.49.26,1.13,1.82,1.32ZM98.93,39.35c.92.59.8.48,1.53.45.51-.02.92.06,2.84,1.55,1.32,1.03,2.46,2.27,3.87,2.17,1.84-.14,2.69-1.26,3.84-2.14,2.37-1.81,2.65-2.07,3.41-2.05.78.02,6.2-4.22,7.47-5.09,0,0-11.16,8.55-12.72,9.75-1.55,1.2-2.54,1.2-4.17,0-1.63-1.2-11.92-8.59-11.92-8.59,0,0,4.93,3.36,5.85,3.95ZM94.15,29.52c0-.57.49-1.04,1.09-1.04s1.08.46,1.08,1.04-.49,1.04-1.08,1.04-1.09-.46-1.09-1.04ZM97.71,33.46c0-.57.49-1.04,1.08-1.04s1.09.46,1.09,1.04-.49,1.04-1.09,1.04-1.08-.46-1.08-1.04ZM107.2,34.78s-3.52.01-5.74-1.77c-1.11-.89-1.11-1.79.2-3.09,1.13-1.12,2.74-2.6,2.74-2.6,0,0,2.43,1.16,2.8,1.14.37.01,2.8-1.14,2.8-1.14,0,0,1.61,1.48,2.74,2.6,1.31,1.29,1.32,2.2.2,3.09-2.23,1.78-5.74,1.77-5.74,1.77ZM111.86,36.53c0,.57-.49,1.04-1.08,1.04s-1.09-.46-1.09-1.04.49-1.04,1.09-1.04,1.08.46,1.08,1.04ZM108.39,39.71c-1.22.92-1.11,2.05-1.22,2.87-.12-.82,0-1.95-1.22-2.87-1.15-.86-.97-2.14-.97-2.14.19,1.13.82,1.32,1.32,1.32h1.74c.49,0,1.13-.19,1.32-1.32,0,0,.18,1.28-.97,2.14ZM104.09,36.69c0,.57-.49,1.04-1.08,1.04s-1.09-.46-1.09-1.04.49-1.04,1.09-1.04,1.08.46,1.08,1.04ZM114.45,33.46c0-.57.49-1.04,1.09-1.04s1.08.46,1.08,1.04-.49,1.04-1.08,1.04-1.09-.46-1.09-1.04ZM118.02,29.52c0-.57.49-1.04,1.08-1.04s1.09.46,1.09,1.04-.49,1.04-1.09,1.04-1.08-.46-1.08-1.04ZM121.27,24.21c0,.57-.49,1.04-1.09,1.04s-1.09-.46-1.09-1.04.49-1.04,1.09-1.04,1.09.46,1.09,1.04ZM118.61,17.67c.6,0,1.09.46,1.09,1.04s-.49,1.04-1.09,1.04-1.09-.46-1.09-1.04.49-1.04,1.09-1.04ZM117.93,22.86c.4,1.33.22,3.33.22,3.33,0,0-.21,2.4-1.69,3.6-1.18.96-2.03.98-3.49-.18-1.26-1-2.98-2.28-2.98-2.28,0,0,1.12-2.29,1.1-2.62v-.03c.02-.33-.47-1.85-.47-1.85h0s-3.05-1.92-3.43-1.91c0,0,.19-3.5.2-4.45.02-1.37,2.33-2.24,5.44-.13,2.22,1.5,3.59,3.94,1.22,4.97-1.63.71-3.43,1.52-3.44,1.53,0,0,1.7-.55,3.27-1.01,2.79-.82,3.64-.28,4.03,1.04ZM104.74,11.76s0-.97.91-1.41c.56-.28.92-.3.99-.73.07-.47.15-1.28.15-1.28,0,0,.08.81.15,1.28.06.43.43.45.99.73.91.45.91,1.41.91,1.41-.25-.87-1.13-1.11-1.44-1.11s-.61,0-.61,0c0,0-.31,0-.61,0s-1.19.24-1.44,1.11ZM105.54,13.24c0,.57-.49,1.04-1.08,1.04s-1.09-.46-1.09-1.04.49-1.04,1.09-1.04,1.08.46,1.08,1.04ZM109.88,12.2c.6,0,1.08.46,1.08,1.04s-.49,1.04-1.08,1.04-1.09-.46-1.09-1.04.49-1.04,1.09-1.04ZM114.64,13.71c.6,0,1.09.46,1.09,1.04s-.49,1.04-1.09,1.04-1.09-.46-1.09-1.04.49-1.04,1.09-1.04ZM105.26,7.59c1.38-.94,1.49-.91,2.56-.26.88.54,6.01,3.53,6.01,3.53-1.45-.05-1.95,0-2.72-.45-.53-.31-2.51-1.46-3.38-2.02-.98-.63-1.05-.66-1.88-.07-.34.24-2.76,1.77-3.23,2.07-.73.46-.84.45-1.42.47-.58.02-.99.02-.99.02,0,0,3.82-2.44,5.05-3.29ZM99.7,13.71c.6,0,1.08.46,1.08,1.04s-.49,1.04-1.08,1.04-1.09-.46-1.09-1.04.49-1.04,1.09-1.04ZM100.44,21.87c1.57.46,3.27,1.01,3.27,1.01,0,0-1.81-.82-3.44-1.53-2.37-1.03-1-3.46,1.22-4.97,3.11-2.11,5.42-1.24,5.44.13.02.95.2,4.45.2,4.45-.37-.01-3.43,1.91-3.43,1.91h0s-.49,1.52-.47,1.85v.03c-.02.33,1.1,2.62,1.1,2.62,0,0-1.72,1.27-2.98,2.28-1.46,1.16-2.3,1.14-3.48.18-1.48-1.2-1.69-3.6-1.69-3.6,0,0-.17-2,.22-3.33.39-1.32,1.24-1.86,4.03-1.04ZM95.72,17.67c.6,0,1.09.46,1.09,1.04s-.49,1.04-1.09,1.04-1.08-.46-1.08-1.04.49-1.04,1.08-1.04ZM94.15,23.17c.6,0,1.09.46,1.09,1.04s-.49,1.04-1.09,1.04-1.09-.46-1.09-1.04.49-1.04,1.09-1.04ZM95.81,48.87c-3.03-2.01-4.55-5.07-3.38-6.83,2.11-3.19,4.02-1.92,7.6.45,3.87,2.57,5.49,3.64,3.38,6.83-1.17,1.76-4.57,1.56-7.6-.45ZM107.17,54.94s-2.3.16-5.77-.98c0,0,1.37.24,2.09-1.18.64-1.25,3.68-7.26,3.68-7.26,0,0,3.04,6.02,3.68,7.26.72,1.42,2.09,1.13,2.09,1.13-3.47,1.14-5.77,1.03-5.77,1.03ZM118.6,48.68c-3.03,2.01-6.44,2.21-7.6.45-2.11-3.19-.49-4.26,3.38-6.83,3.59-2.38,5.49-3.64,7.6-.45,1.17,1.76-.35,4.82-3.38,6.83ZM124.7,26.09c1.56-.19,1.82-.82,1.82-1.32v-1.74c0-.49-.26-1.13-1.82-1.32,0,0,1.77-.19,2.96.97,1.27,1.22,2.83,1.11,3.97,1.22-1.14.12-2.7,0-3.97,1.22-1.19,1.15-2.96.97-2.96.97ZM134.26,24.74c-1.52,1.27-8.04,6.18-8.04,6.18,0,0,.12-1.67,1.5-2.8,1.36-1.11,3.21-2.43,4.14-3.18,1.2-.97,1.23-1.14.16-1.89-1.22-.85-3.48-2.09-4.56-2.82-1.08-.73-1.34-2.13-1.34-2.13,0,0,7.44,4.34,7.98,4.7.55.36,1.41.89.15,1.94Z"/>
      <polygon class="cls-2" points="110.63 22.83 110.63 22.83 110.63 22.83 110.63 22.83"/>
    </g>
  </g>
</svg>